<?xml version="1.0" encoding="UTF-8"?>
<!DOCTYPE svg PUBLIC "-//W3C//DTD SVG 1.1//EN" "http://www.w3.org/Graphics/SVG/1.1/DTD/svg11.dtd">

<svg width="100%" height="100%" xmlns="http://www.w3.org/2000/svg" xmlns:xlink="http://www.w3.org/1999/xlink" xmlns:attrib="http://www.carto.net/attrib/"
viewBox="0 0 5 5">
 <g id="polygon">
  <polygon id="ANDHRA_PRADESH" fill="#CCCCCC" stroke="black" stroke-width="0.0018165" stroke-linecap="round" stroke-linejoin="round" points="2.13974,3.13124 2.1578,3.12023 2.17687,3.12523 2.18387,3.12014 2.19626,3.08532 2.1916,3.06252 2.20018,3.05357 2.22039,3.05558 2.22936,3.09084 2.239,3.09156 2.26451,3.07224 2.26876,3.06122 2.28293,3.07138 2.30315,3.07187 2.29779,3.03334 2.3171,3.01036 2.33403,3.01124 2.35762,2.99555 2.34478,2.97905 2.34939,2.97539 2.36328,2.97738 2.39352,2.95091 2.39912,2.97247 2.41417,2.98401 2.41761,2.97904 2.42091,2.97335 2.43089,3.00134 2.49318,3.00934 2.51025,2.99204 2.51411,2.97715 2.54891,2.96102 2.54594,2.95303 2.56296,2.95676 2.57075,2.96589 2.46469,3.08917 2.41135,3.11452 2.39161,3.12895 2.37008,3.1435 2.35245,3.17499 2.3307,3.18841 2.32856,3.19816 2.22922,3.24851 2.18448,3.29597 2.18939,3.309 2.19695,3.29326 2.20419,3.29999 2.19298,3.33094 2.16632,3.32179 2.16942,3.33696 2.19298,3.33094 2.18904,3.35666 2.09603,3.39109 2.0847,3.38968 2.07725,3.38744 2.03724,3.38806 2.01534,3.44087 1.99268,3.46387 1.99065,3.47681 1.96215,3.49015 1.95203,3.4646 1.92017,3.46384 1.89704,3.47813 1.88093,3.49116 1.86506,3.53141 1.84973,3.54302 1.83791,3.5951 1.8557,3.66092 1.85812,3.69819 1.85543,3.71257 1.83888,3.72317 1.85348,3.72638 1.87074,3.78296 1.87764,3.83906 1.87206,3.83674 1.85737,3.83036 1.83636,3.82297 1.83766,3.83289 1.82353,3.85083 1.80237,3.85869 1.79869,3.86674 1.74315,3.85162 1.73893,3.87476 1.72311,3.88929 1.72093,3.8982 1.71125,3.90095 1.63285,3.88751 1.615,3.89837 1.60598,3.93347 1.58273,3.96218 1.56523,3.95208 1.55375,3.94397 1.56603,3.9209 1.57947,3.91393 1.59124,3.92061 1.58487,3.91102 1.60981,3.86376 1.57817,3.85487 1.57849,3.81778 1.5338,3.80426 1.53836,3.78611 1.53116,3.77092 1.50584,3.77298 1.51026,3.75799 1.48685,3.7602 1.48788,3.77458 1.47284,3.78751 1.44007,3.79373 1.43211,3.79252 1.42628,3.77374 1.40225,3.77242 1.39183,3.76434 1.38477,3.76572 1.38679,3.78454 1.36124,3.78946 1.36569,3.76064 1.35215,3.73233 1.35026,3.72401 1.36484,3.72166 1.37105,3.74345 1.40723,3.74691 1.41938,3.7636 1.43141,3.75916 1.41718,3.74075 1.42028,3.72921 1.44301,3.71732 1.43088,3.70292 1.42317,3.70055 1.42073,3.71799 1.38484,3.69509 1.37991,3.71227 1.36262,3.71148 1.34424,3.6969 1.3587,3.67527 1.33015,3.66457 1.32704,3.65497 1.33093,3.62916 1.34443,3.61142 1.33965,3.5991 1.32895,3.59737 1.33675,3.58388 1.38033,3.5934 1.38967,3.57126 1.36051,3.51461 1.36857,3.51681 1.36824,3.49364 1.37814,3.48949 1.37238,3.46061 1.39495,3.44465 1.44076,3.45106 1.44432,3.38652 1.41122,3.37736 1.41193,3.3631 1.42711,3.35861 1.43783,3.34266 1.43291,3.31967 1.44034,3.26487 1.42485,3.24934 1.45387,3.21621 1.47447,3.20479 1.44437,3.20018 1.43568,3.19004 1.44676,3.16027 1.46933,3.13385 1.46474,3.12741 1.45471,3.13226 1.45041,3.12496 1.45916,3.11336 1.45591,3.09309 1.46171,3.08512 1.45534,3.08287 1.45307,3.08174 1.44757,3.06337 1.45538,3.05999 1.4542,3.0492 1.48866,3.03752 1.48488,3.02215 1.49829,3.00247 1.50023,2.98533 1.4853,2.97581 1.50055,2.95684 1.50118,2.92877 1.5175,2.9229 1.53331,2.94335 1.55294,2.93502 1.55338,2.91387 1.56818,2.90486 1.57184,2.887 1.56821,2.86948 1.57766,2.85288 1.57074,2.84199 1.5719,2.83379 1.59505,2.86027 1.63485,2.85434 1.644,2.86034 1.64527,2.87112 1.6683,2.89104 1.7104,2.90548 1.71885,2.88274 1.75228,2.89696 1.80102,2.88908 1.80572,2.90131 1.83044,2.91632 1.8327,2.92438 1.81205,2.95656 1.81098,2.96375 1.82717,2.97875 1.81775,3.00636 1.8445,3.01563 1.86884,3.01729 1.88163,3.03461 1.89418,3.0348 1.92391,3.04128 1.94474,3.07248 1.9515,3.10448 1.96557,3.09637 1.96521,3.10543 1.98195,3.1044 1.9879,3.15958 1.9945,3.16279 2.01459,3.15201 2.04718,3.15863 2.08279,3.14904 2.10894,3.13881 2.12541,3.13367 2.13975,3.13125 " attrib:gid="1"/>
  <polygon id="ARUNACHAL_PRADESH" fill="#CCCCCC" stroke="black" stroke-width="0.0018165" stroke-linecap="round" stroke-linejoin="round" points="4.24938,1.67556 4.2614,1.67689 4.27302,1.67488 4.30401,1.67226 4.32435,1.66029 4.32751,1.65252 4.32128,1.64802 4.30525,1.64763 4.30563,1.63084 4.2925,1.61887 4.28885,1.60129 4.31311,1.56323 4.27469,1.56105 4.24944,1.57539 4.20696,1.57893 4.15199,1.59843 4.10006,1.62749 4.06911,1.62736 4.05975,1.6254 4.05349,1.61758 4.04481,1.62069 4.04574,1.63099 4.05624,1.63578 4.01418,1.66475 3.98808,1.69195 3.98437,1.71318 3.96315,1.72631 3.9383,1.72819 3.89687,1.72926 3.86515,1.73492 3.81846,1.7152 3.8049,1.71699 3.77795,1.72966 3.75323,1.73593 3.73533,1.7408 3.72399,1.73795 3.70426,1.69866 3.71797,1.67286 3.6991,1.64913 3.6407,1.64107 3.63083,1.63003 3.64098,1.60897 3.63764,1.59065 3.69028,1.61148 3.72918,1.58705 3.75066,1.59529 3.77809,1.58892 3.81025,1.56936 3.80107,1.55134 3.80839,1.54152 3.88806,1.50964 3.87861,1.49641 3.8975,1.46607 3.91069,1.45935 4.00324,1.4513 4.00428,1.43101 4.03839,1.39122 4.09939,1.35379 4.11796,1.36152 4.12508,1.37416 4.16068,1.3759 4.20956,1.3955 4.23153,1.39444 4.25318,1.36167 4.32454,1.3287 4.35864,1.36582 4.37359,1.35551 4.37595,1.36531 4.36624,1.37769 4.33839,1.38949 4.3435,1.41453 4.36966,1.39704 4.39417,1.39267 4.39262,1.4033 4.41075,1.43972 4.36924,1.47318 4.37142,1.48154 4.35879,1.48814 4.36788,1.49668 4.37776,1.50266 4.4143,1.48333 4.45033,1.49856 4.48901,1.49802 4.53451,1.51773 4.5237,1.5379 4.53564,1.551 4.53039,1.56468 4.51587,1.56771 4.4606,1.61113 4.47547,1.64837 4.50343,1.68555 4.49759,1.69072 4.46128,1.67312 4.43717,1.64469 4.40615,1.6606 4.35635,1.66739 4.33161,1.6791 4.31012,1.70462 4.23582,1.76101 4.21232,1.76398 4.19801,1.75117 4.19867,1.71546 4.20526,1.70724 4.22646,1.69572 4.24002,1.68985 4.24938,1.67557 " attrib:gid="2"/>
  <polygon id="ASSAM" fill="#CCFF66" stroke="black" stroke-width="0.0018165" stroke-linecap="round" stroke-linejoin="round" points="3.81662,1.94979 3.7972,1.94423 3.76418,1.9202 3.73635,1.92877 3.72772,1.92183 3.72958,1.91168 3.74749,1.87214 3.7409,1.87138 3.73252,1.87254 3.69891,1.88189 3.67804,1.8697 3.66829,1.87166 3.65823,1.89636 3.65086,1.89717 3.64728,1.88004 3.62201,1.89107 3.62911,1.90507 3.60448,1.90882 3.57822,1.92658 3.57879,1.90371 3.55196,1.91073 3.54813,1.90386 3.55037,1.89829 3.48946,1.89753 3.48596,1.89041 3.47677,1.89804 3.4623,1.88596 3.40856,1.89741 3.39554,1.90878 3.37092,1.90859 3.37179,1.89265 3.34655,1.84552 3.35449,1.83925 3.36154,1.83396 3.36401,1.82488 3.36486,1.81775 3.36528,1.79463 3.36721,1.77323 3.41732,1.76531 3.42878,1.74773 3.44959,1.74216 3.46369,1.75275 3.49106,1.76205 3.54225,1.76185 3.56105,1.75314 3.59694,1.7589 3.61174,1.7495 3.62828,1.75648 3.65718,1.75407 3.68335,1.73626 3.71401,1.74763 3.724,1.73795 3.73533,1.7408 3.75323,1.73593 3.77795,1.72966 3.80491,1.71699 3.81847,1.7152 3.86515,1.73492 3.89687,1.72926 3.9383,1.72819 3.96315,1.72631 3.98437,1.71318 3.98809,1.69195 4.01418,1.66475 4.05625,1.63578 4.04574,1.63099 4.04481,1.62069 4.05349,1.61758 4.05976,1.6254 4.06912,1.62736 4.10006,1.62749 4.15199,1.59843 4.20697,1.57893 4.24944,1.57539 4.27469,1.56105 4.31312,1.56323 4.28885,1.60129 4.2925,1.61887 4.30563,1.63084 4.30525,1.64763 4.32129,1.64802 4.32751,1.65252 4.32435,1.66029 4.30402,1.67226 4.27303,1.67488 4.2614,1.67689 4.24938,1.67556 4.24003,1.68984 4.22646,1.69571 4.20527,1.70723 4.19867,1.71546 4.17014,1.73019 4.14848,1.73263 4.13774,1.74947 4.11762,1.75938 4.10468,1.76623 4.09289,1.76658 4.06282,1.80432 4.05583,1.79113 4.03825,1.81876 4.01552,1.84615 4.00795,1.87697 4.01282,1.88691 3.99499,1.89651 3.97253,1.88984 3.92271,1.9364 3.92101,1.95097 3.93462,1.96291 3.93648,1.98425 3.92714,1.98205 3.91645,1.99254 3.90106,2.03788 3.89305,2.04934 3.88794,2.05749 3.87951,2.05787 3.87106,2.07432 3.88572,2.08842 3.88396,2.10405 3.86574,2.10767 3.86285,2.13753 3.84127,2.13957 3.82813,2.1211 3.79349,2.17773 3.77715,2.17164 3.77045,2.16569 3.76505,2.15762 3.74463,2.15951 3.75271,2.14609 3.74624,2.11509 3.75243,2.07929 3.74212,2.06248 3.74556,2.0508 3.77492,2.06194 3.78011,2.05591 3.78187,2.04536 3.77142,2.03208 3.7821,2.02271 3.79155,2.01825 3.83152,1.99798 3.83519,1.98074 3.80609,1.9768 3.7951,1.96408 3.81662,1.94979 " attrib:gid="3"/>
  <polygon id="BIHAR" fill="#33CC00" stroke="black" stroke-width="0.0018165" stroke-linecap="round" stroke-linejoin="round" points="2.47582,1.84047 2.43623,1.82467 2.43912,1.81759 2.45523,1.81257 2.46957,1.79565 2.51,1.80011 2.50833,1.78602 2.49571,1.7847 2.4877,1.77039 2.46086,1.75882 2.44772,1.69809 2.43944,1.68935 2.43244,1.69306 2.42206,1.69246 2.42048,1.68626 2.42594,1.68031 2.43332,1.67938 2.42445,1.66874 2.42873,1.66378 2.45555,1.66655 2.47052,1.65975 2.49733,1.67816 2.55006,1.68847 2.55976,1.70838 2.55645,1.73132 2.56684,1.73565 2.63016,1.75672 2.64554,1.77193 2.70648,1.75681 2.71904,1.76916 2.72067,1.79145 2.73963,1.80204 2.76886,1.78996 2.78489,1.79109 2.82431,1.79866 2.88197,1.82512 2.92586,1.79936 2.92897,1.81561 2.97395,1.83212 2.99433,1.82009 3.0202,1.8276 3.05858,1.8163 3.07887,1.83185 3.09766,1.80252 3.1095,1.80797 3.11596,1.82032 3.12005,1.83796 3.07787,1.86285 3.05548,1.88866 3.05218,1.9077 3.08501,1.9389 3.07937,1.95386 3.09343,1.9615 3.08748,1.96868 3.069,1.96697 3.05134,1.97546 3.06083,2.00444 3.04576,2.00807 3.04928,2.03191 3.05988,2.0429 3.05962,2.08022 3.06069,2.09692 3.06317,2.11132 3.04935,2.11899 3.05146,2.14723 3.03476,2.1605 3.03859,2.17646 3.00684,2.18441 2.99706,2.20538 2.9752,2.20447 2.97329,2.19878 2.96094,2.2045 2.96558,2.21205 2.95129,2.22909 2.94369,2.22529 2.91304,2.23472 2.89015,2.2197 2.88213,2.22931 2.88595,2.23602 2.87411,2.25583 2.84626,2.25115 2.81573,2.27024 2.80513,2.29782 2.79793,2.29976 2.77843,2.28979 2.77241,2.27333 2.75603,2.27792 2.75872,2.28385 2.73522,2.2873 2.73317,2.28853 2.73058,2.29618 2.72951,2.32426 2.74452,2.33792 2.75435,2.3398 2.78193,2.35744 2.83608,2.36118 2.8222,2.37222 2.82039,2.38867 2.82256,2.39793 2.83793,2.40395 2.85177,2.42434 2.86598,2.42734 2.86607,2.44309 2.88526,2.46774 2.86978,2.48198 2.86196,2.47902 2.76195,2.43101 2.75301,2.43321 2.75326,2.47911 2.75899,2.48485 2.74717,2.51133 2.72868,2.51719 2.72265,2.51435 2.72748,2.49871 2.70814,2.50242 2.65736,2.48848 2.64157,2.50871 2.60444,2.50263 2.61684,2.45507 2.6149,2.44546 2.60772,2.44428 2.52982,2.44869 2.51363,2.4586 2.49072,2.45998 2.44739,2.43175 2.4789,2.41369 2.50443,2.37692 2.50274,2.36773 2.46755,2.36264 2.45155,2.33417 2.45521,2.32376 2.45801,2.30983 2.44236,2.30512 2.4503,2.26641 2.43855,2.26601 2.43184,2.27736 2.41532,2.2738 2.40055,2.25516 2.38895,2.2221 2.36815,2.21009 2.33524,2.2087 2.35625,2.1855 2.36747,2.15082 2.36204,2.13712 2.3714,2.12727 2.38074,2.12197 2.38074,2.11359 2.35961,2.08559 2.35218,2.07772 2.34939,2.03973 2.35824,2.01402 2.37419,2.00541 2.39663,1.99614 2.4136,1.99111 2.43289,1.97238 2.44445,1.9619 2.51702,1.93052 2.53389,1.94755 2.54911,1.94693 2.54429,1.9315 2.53118,1.92458 2.47953,1.89493 2.45632,1.88052 2.4517,1.86294 2.47672,1.85749 2.47581,1.84048 " attrib:gid="4"/>
  <polygon id="CHANDIGARH" fill="#CCCCCC" stroke="black" stroke-width="0.0018165" stroke-linecap="round" stroke-linejoin="round" points="1.34186,1.14723 1.34203,1.15513 1.34073,1.16027 1.31544,1.15758 1.31743,1.14853 " attrib:gid="5"/>
  <polygon id="DADRA_AND_NAGAR_HAVELI" fill="#CCCCCC" stroke="black" stroke-width="0.0018165" stroke-linecap="round" stroke-linejoin="round" points="0.74384,2.77997 0.73918,2.76933 0.747443,2.76159 0.774409,2.76449 0.760473,2.78434 0.778229,2.78192 0.786317,2.79073 0.780768,2.80197 0.75486,2.80206 0.743133,2.79394 0.743843,2.77997 " attrib:gid="6"/>
  <polygon id="DELHI" fill="#CCCCCC" stroke="black" stroke-width="0.0018165" stroke-linecap="round" stroke-linejoin="round" points="1.3527,1.45272 1.38198,1.44521 1.38987,1.44594 1.41168,1.47946 1.41404,1.50518 1.40571,1.51204 1.40122,1.51473 1.38469,1.51466 1.37176,1.49927 1.34922,1.50088 1.33535,1.49664 1.33355,1.48895 1.35243,1.46953 1.3527,1.45272 " attrib:gid="8"/>
  <polygon id="GOA" fill="#CCCCCC" stroke="black" stroke-width="0.0018165" stroke-linecap="round" stroke-linejoin="round" points="0.854305,3.47746 0.874444,3.46926 0.900424,3.49604 0.912785,3.48649 0.937109,3.48872 0.935633,3.50446 0.932889,3.51749 0.944081,3.53448 0.945145,3.5405 0.930253,3.54939 0.940941,3.55962 0.933941,3.59465 0.914614,3.5979 0.904032,3.59603 0.891823,3.57981 0.884584,3.54213 0.871813,3.53285 0.877907,3.52807 0.863407,3.50183 0.854303,3.47746 " attrib:gid="9"/>
  <polygon id="GUJARAT" fill="#CCCCCC" stroke="black" stroke-width="0.0018165" stroke-linecap="round" stroke-linejoin="round" points="0.205557,2.52186 0.18012,2.50338 0.146466,2.45704 0.153286,2.42496 0.160968,2.43752 0.180529,2.43931 0.184722,2.45837 0.253109,2.44396 0.263057,2.43273 0.332229,2.41894 0.357348,2.37188 0.373734,2.35832 0.381386,2.34381 0.372093,2.34334 0.351847,2.36093 0.346128,2.33976 0.342488,2.35685 0.285305,2.36949 0.264429,2.38446 0.181205,2.36603 0.102778,2.32137 0.0912593,2.30911 0.108547,2.30633 0.102633,2.29227 0.0936111,2.29261 0.0811263,2.27627 0.0655909,2.2791 0.0704562,2.26214 0.064197,2.25537 0.0818215,2.20588 0.0727593,2.2044 0.0717071,2.22516 0.0498064,2.25465 0.0257744,2.25095 0.0277088,2.20777 0.0344596,2.19631 0.0585387,2.19092 0.061968,2.14106 0.0690623,2.13475 0.0808822,2.14769 0.08767,2.1417 0.0992391,2.14921 0.194295,2.14388 0.216492,2.15724 0.246535,2.16286 0.26448,2.15433 0.277567,2.13596 0.34448,2.12272 0.352838,2.15468 0.381258,2.1559 0.42913,2.12456 0.412626,2.11104 0.431739,2.08171 0.437236,2.08759 0.446226,2.08734 0.453502,2.09376 0.480145,2.08777 0.497419,2.08513 0.545929,2.09555 0.550253,2.08942 0.576897,2.08836 0.616951,2.10246 0.607269,2.10678 0.712532,2.13948 0.73067,2.11827 0.739002,2.11866 0.738941,2.12312 0.738823,2.1318 0.754586,2.14151 0.736966,2.16462 0.740375,2.17412 0.760626,2.19539 0.781552,2.18282 0.820822,2.23076 0.840534,2.26148 0.852377,2.25669 0.862343,2.28695 0.889234,2.2939 0.911687,2.30153 0.928094,2.31325 0.933817,2.33124 0.953131,2.33096 0.961492,2.34937 0.964958,2.36496 0.986035,2.37739 0.9845,2.38401 0.967359,2.41209 0.928219,2.43111 0.921088,2.42472 0.926768,2.44044 0.937333,2.43829 0.949636,2.44711 0.937944,2.45801 0.921212,2.45758 0.932995,2.48699 0.932148,2.51419 0.911574,2.53148 0.896423,2.52846 0.880776,2.53559 0.892721,2.55649 0.87735,2.56406 0.887535,2.58465 0.899646,2.58327 0.933823,2.57605 0.962333,2.57857 0.963396,2.58499 0.900049,2.60351 0.893707,2.61753 0.866778,2.63497 0.866067,2.64499 0.890887,2.66428 0.894116,2.68417 0.897631,2.69873 0.878414,2.70514 0.87467,2.72191 0.863616,2.72509 0.850939,2.72531 0.825527,2.70117 0.813941,2.71128 0.827239,2.73835 0.812848,2.75084 0.819399,2.78185 0.786311,2.79074 0.778226,2.78193 0.760468,2.78435 0.774404,2.7645 0.747438,2.7616 0.739175,2.76934 0.743837,2.77998 0.73568,2.76974 0.72464,2.7642 0.742816,2.76045 0.739603,2.74359 0.741896,2.71864 0.714709,2.64623 0.707103,2.64909 0.69965,2.61743 0.710226,2.58864 0.717015,2.57618 0.735175,2.56892 0.73632,2.56083 0.691522,2.561 0.699869,2.52413 0.691566,2.52613 0.685828,2.51874 0.684286,2.48871 0.694077,2.47923 0.688993,2.47668 0.673958,2.48059 0.666,2.46346 0.658229,2.49391 0.655098,2.49904 0.648168,2.50803 0.656296,2.56572 0.627369,2.62849 0.551269,2.66242 0.520527,2.68069 0.511813,2.67757 0.509091,2.68515 0.478854,2.69008 0.470877,2.69298 0.453318,2.70045 0.440372,2.69522 0.431796,2.69514 0.428241,2.69759 0.426598,2.70485 0.409407,2.69737 0.392296,2.6886 0.334037,2.65451 0.205561,2.52188 " attrib:gid="10"/>
  <polygon id="HARYANA" fill="#33CC00" stroke="black" stroke-width="0.0018165" stroke-linecap="round" stroke-linejoin="round" points="1.25387,1.55543 1.2606,1.56022 1.25932,1.57345 1.23707,1.57627 1.2286,1.58429 1.24096,1.61059 1.23213,1.61046 1.21578,1.6079 1.20416,1.60605 1.1972,1.58789 1.20564,1.57492 1.2023,1.56126 1.21023,1.5406 1.18867,1.52427 1.15044,1.49803 1.13598,1.47431 1.12564,1.43436 1.13164,1.42258 1.11362,1.41429 1.11436,1.38403 1.1038,1.38294 1.1029,1.37455 1.08653,1.38711 1.0807,1.38093 1.04158,1.37704 1.03848,1.36535 0.991404,1.37374 0.980921,1.35446 0.992195,1.34581 0.992431,1.31329 0.973779,1.30323 0.985806,1.27495 0.995234,1.27443 1.0117,1.26749 1.05347,1.28661 1.07481,1.28659 1.07279,1.29931 1.08248,1.29245 1.08247,1.32539 1.09909,1.3359 1.11894,1.30073 1.14626,1.30461 1.17961,1.29564 1.19306,1.30555 1.20351,1.31215 1.21853,1.30632 1.22607,1.29258 1.23633,1.29225 1.2441,1.29065 1.23293,1.26961 1.25062,1.2622 1.24263,1.25025 1.26897,1.2499 1.27161,1.24442 1.29831,1.25707 1.32048,1.2118 1.32844,1.20503 1.35052,1.20575 1.35435,1.17667 1.34073,1.16027 1.34203,1.15513 1.34186,1.14723 1.33654,1.1409 1.33141,1.12849 1.35072,1.13453 1.38031,1.15311 1.3896,1.16419 1.39004,1.19454 1.4267,1.20587 1.45853,1.21389 1.43433,1.25028 1.40298,1.26405 1.39601,1.27254 1.38872,1.27744 1.389,1.3014 1.38499,1.32104 1.3749,1.32926 1.36739,1.34384 1.3854,1.36976 1.38653,1.38438 1.37894,1.38987 1.37892,1.39797 1.38137,1.41463 1.38987,1.44594 1.38198,1.4452 1.35269,1.45271 1.35242,1.46952 1.33354,1.48895 1.33534,1.49663 1.34922,1.50087 1.37175,1.49926 1.38468,1.51466 1.40121,1.51472 1.4057,1.51204 1.41403,1.50517 1.44153,1.52456 1.43351,1.56478 1.42792,1.57247 1.43734,1.59199 1.43307,1.59838 1.41098,1.60268 1.40884,1.60923 1.40539,1.61417 1.36714,1.61178 1.36959,1.62211 1.35226,1.63593 1.34262,1.63535 1.35277,1.60347 1.35132,1.55694 1.33461,1.54734 1.28864,1.58648 1.27827,1.55887 1.25386,1.55543 " attrib:gid="11"/>
  <polygon id="HIMACHAL_PRADESH" fill="#CCCCCC" stroke="black" stroke-width="0.0018165" stroke-linecap="round" stroke-linejoin="round" points="1.32576,0.779377 1.33369,0.772842 1.3342,0.769859 1.34517,0.773837 1.34567,0.792451 1.36016,0.80682 1.4125,0.832081 1.43966,0.82813 1.47912,0.811512 1.48937,0.816677 1.51316,0.861638 1.53244,0.870003 1.5789,0.845643 1.5714,0.875229 1.57948,0.890968 1.58884,0.879197 1.60366,0.892852 1.59662,0.924483 1.6192,0.930796 1.62974,0.947596 1.64672,0.971758 1.63775,0.979402 1.63429,1.00413 1.65358,1.02693 1.63416,1.04424 1.6476,1.05195 1.66511,1.07994 1.67316,1.10226 1.6628,1.10432 1.63913,1.09047 1.59499,1.08667 1.57109,1.07459 1.53407,1.09632 1.51158,1.09434 1.49528,1.11623 1.48487,1.13156 1.48913,1.14164 1.4796,1.15152 1.4858,1.17168 1.47942,1.18388 1.49167,1.19142 1.45605,1.20913 1.45852,1.21389 1.42669,1.20587 1.39003,1.19455 1.3896,1.1642 1.3803,1.15311 1.35071,1.13454 1.33141,1.1285 1.30575,1.11357 1.31039,1.08614 1.30621,1.07467 1.27867,1.06638 1.27579,1.04932 1.26512,1.05508 1.25597,1.06614 1.24665,1.07161 1.2322,1.04727 1.22151,1.00834 1.20839,0.992357 1.21033,0.97933 1.1841,0.95984 1.15435,0.947259 1.16958,0.916909 1.20086,0.896943 1.19896,0.88882 1.18851,0.882586 1.20286,0.86229 1.19906,0.842931 1.18378,0.82235 1.18897,0.81664 1.20584,0.820843 1.228,0.803845 1.25109,0.802221 1.2775,0.779002 1.32576,0.779386 " attrib:gid="12"/>
  <polygon id="JAMMU_AND_KASHMIR" fill="#33CC00" stroke="black" stroke-width="0.0018165" stroke-linecap="round" stroke-linejoin="round" points="0.787222,0.363288 0.742167,0.359084 0.728764,0.365315 0.693998,0.354567 0.69888,0.304481 0.737928,0.290586 0.780682,0.248554 0.780246,0.23701 0.789719,0.228805 0.901345,0.229301 0.913002,0.225138 0.884342,0.214766 0.8732,0.200869 0.897527,0.199468 0.934825,0.209473 0.988239,0.190056 1.00968,0.191254 1.03054,0.174429 1.05587,0.1963 1.06954,0.198564 1.12034,0.181862 1.14601,0.215746 1.19318,0.25365 1.25064,0.278266 1.26359,0.290924 1.27873,0.291177 1.30509,0.31486 1.33259,0.322386 1.34547,0.342638 1.33946,0.358152 1.34701,0.365566 1.36809,0.377608 1.44296,0.39049 1.4514,0.418113 1.4324,0.417498 1.45512,0.428219 1.4889,0.416429 1.51981,0.425823 1.52473,0.409032 1.55138,0.415904 1.57648,0.387906 1.63961,0.368364 1.71001,0.375025 1.71774,0.351889 1.73446,0.347311 1.75714,0.366859 1.80147,0.380961 1.836,0.377774 1.85198,0.400675 1.88176,0.417779 1.87948,0.44369 1.83785,0.549404 1.80516,0.55813 1.79429,0.584641 1.76204,0.581146 1.76839,0.6175 1.74373,0.651281 1.70115,0.640503 1.69898,0.64953 1.66986,0.645717 1.66619,0.65431 1.67385,0.677165 1.68674,0.688333 1.68267,0.701327 1.69376,0.707246 1.67273,0.710444 1.67371,0.751165 1.69702,0.763458 1.74487,0.769938 1.74901,0.774673 1.73479,0.809907 1.77141,0.847343 1.76753,0.857268 1.74718,0.878547 1.72812,0.871774 1.72345,0.880421 1.70322,0.884483 1.70476,0.894485 1.69711,0.901111 1.67032,0.907697 1.64535,0.890207 1.64115,0.860946 1.59872,0.866024 1.58884,0.879209 1.57948,0.89098 1.57139,0.875241 1.5789,0.845655 1.53243,0.870013 1.51315,0.861648 1.48937,0.816687 1.47912,0.811522 1.43966,0.828141 1.4125,0.832091 1.36016,0.806832 1.34567,0.792463 1.34517,0.773848 1.3342,0.769869 1.33369,0.772852 1.32576,0.779389 1.27751,0.779005 1.25109,0.802222 1.22801,0.803848 1.20585,0.820847 1.18898,0.816641 1.18379,0.822354 1.19906,0.842933 1.20286,0.862291 1.18852,0.882588 1.1553,0.890865 1.14738,0.910024 1.11342,0.906949 1.07765,0.887345 1.08063,0.882902 1.01789,0.877557 1.00861,0.86182 1.01827,0.827556 0.989094,0.837077 0.973519,0.830823 0.961744,0.831798 0.916172,0.815077 0.894833,0.79912 0.880037,0.801436 0.841406,0.782896 0.85221,0.756753 0.841631,0.742559 0.847099,0.701924 0.851311,0.692093 0.844362,0.665709 0.830956,0.648066 0.839875,0.627162 0.840936,0.603557 0.824217,0.583603 0.833431,0.559783 0.866699,0.55469 0.878801,0.527633 0.92396,0.506556 0.932586,0.481012 0.931226,0.471052 0.875086,0.45584 0.871478,0.436658 0.887027,0.416838 0.869478,0.41229 0.840505,0.419111 0.78852,0.383138 " attrib:gid="13"/>
  <polygon id="KARNATAKA" fill="#CCCCCC" stroke="black" stroke-width="0.0018165" stroke-linecap="round" stroke-linejoin="round" points="1.44006,3.79372 1.47283,3.78751 1.48787,3.77457 1.48684,3.7602 1.51025,3.75799 1.50583,3.77298 1.53115,3.77092 1.53835,3.78611 1.53379,3.80426 1.57848,3.81777 1.57816,3.85487 1.6098,3.86376 1.58486,3.91102 1.59123,3.92061 1.57946,3.91392 1.56602,3.9209 1.55374,3.94396 1.55427,3.9375 1.53015,3.92689 1.5185,3.93517 1.49772,3.92241 1.49128,3.92346 1.48672,3.92178 1.4808,3.94539 1.4727,3.95466 1.46229,3.95404 1.44999,3.9668 1.46006,3.99025 1.45664,3.99876 1.42941,4.02057 1.43454,4.0343 1.47573,4.03432 1.48086,4.05064 1.46158,4.06259 1.46342,4.07046 1.4452,4.07207 1.41253,4.09552 1.40169,4.0912 1.37456,4.10071 1.36553,4.09063 1.35211,4.08966 1.33488,4.11657 1.29498,4.12604 1.2861,4.10897 1.27231,4.11205 1.26054,4.09689 1.22284,4.07686 1.22085,4.06441 1.20128,4.07107 1.19676,4.07115 1.18292,4.06452 1.16772,4.0427 1.13707,4.02995 1.11679,4.00524 1.10792,3.99437 1.11283,3.97861 1.09705,3.97995 1.09884,3.96885 1.07189,3.95608 1.07187,3.94918 1.06187,3.95357 1.04872,3.93706 1.03476,3.94155 1.02086,3.91386 1.00391,3.8444 1.00098,3.80578 1.00914,3.80818 1.00764,3.80174 1.00057,3.80133 0.987384,3.76037 0.97479,3.74213 0.956414,3.66575 0.948564,3.66538 0.938746,3.62748 0.928694,3.61796 0.935258,3.60929 0.919332,3.60698 0.914616,3.5979 0.933944,3.59464 0.940943,3.55961 0.930254,3.54938 0.945148,3.54049 0.944084,3.53447 0.932891,3.51749 0.935635,3.50445 0.937111,3.48872 0.912788,3.48648 0.916025,3.48021 0.923109,3.46806 0.930805,3.47664 0.948944,3.47055 0.964747,3.42881 0.953702,3.42319 0.971281,3.41712 0.96787,3.39661 0.947463,3.38777 0.950424,3.37127 0.936842,3.35116 0.956828,3.3495 0.967333,3.33482 0.984148,3.33714 0.984502,3.34448 1.00099,3.34062 1.005,3.32434 1.03941,3.31624 1.0425,3.28521 1.06464,3.28356 1.08454,3.30718 1.10349,3.29799 1.09653,3.28863 1.11009,3.28562 1.16177,3.28546 1.15347,3.23435 1.14829,3.22422 1.15852,3.21092 1.19416,3.23503 1.21318,3.23326 1.21968,3.22767 1.26645,3.23281 1.27072,3.22771 1.2609,3.19157 1.27205,3.19298 1.27854,3.18568 1.29461,3.16759 1.32062,3.17586 1.33582,3.15736 1.328,3.14797 1.34825,3.14338 1.35866,3.11488 1.35375,3.1089 1.3837,3.10551 1.39822,3.08734 1.39329,3.07919 1.40878,3.06419 1.42582,3.063 1.42392,3.08 1.45306,3.08173 1.45533,3.08286 1.4617,3.0851 1.4559,3.09307 1.45915,3.11334 1.4504,3.12494 1.4547,3.13224 1.46473,3.1274 1.46932,3.13384 1.44675,3.16025 1.43567,3.19003 1.44436,3.20016 1.47446,3.20477 1.45386,3.2162 1.42485,3.24932 1.44033,3.26486 1.4329,3.31965 1.43782,3.34264 1.4271,3.3586 1.41192,3.36308 1.41121,3.37735 1.44432,3.3865 1.44075,3.45105 1.39494,3.44463 1.37237,3.4606 1.37814,3.48947 1.36823,3.49362 1.36856,3.5168 1.3605,3.5146 1.38966,3.57125 1.38032,3.59338 1.33674,3.58387 1.32895,3.59736 1.33964,3.59908 1.34442,3.6114 1.33092,3.62914 1.32703,3.65496 1.33014,3.66456 1.35869,3.67526 1.34423,3.69688 1.36261,3.71146 1.3799,3.71226 1.38483,3.69507 1.42072,3.71797 1.42316,3.70054 1.43087,3.7029 1.443,3.71731 1.42027,3.7292 1.41717,3.74074 1.4314,3.75914 1.41937,3.76358 1.40722,3.74689 1.37104,3.74344 1.36483,3.72165 1.35025,3.72399 1.35214,3.73231 1.36568,3.76062 1.36123,3.78944 1.38679,3.78453 1.38476,3.76571 1.39182,3.76433 1.40224,3.77241 1.42627,3.77372 1.4321,3.7925 1.44006,3.79371 " attrib:gid="14"/>
  <polygon id="KERALA" fill="#CCCCCC" stroke="black" stroke-width="0.0018165" stroke-linecap="round" stroke-linejoin="round" points="1.2749,4.50702 1.25592,4.46663 1.24476,4.39036 1.23882,4.37373 1.22913,4.34171 1.21608,4.30931 1.19792,4.26926 1.18922,4.26184 1.20028,4.24187 1.18827,4.24337 1.17585,4.18887 1.159,4.15493 1.13188,4.10584 1.1094,4.08478 1.08694,4.05682 1.04796,3.9832 1.03476,3.94155 1.04872,3.93706 1.06187,3.95358 1.07188,3.94919 1.07189,3.95608 1.09885,3.96886 1.09705,3.97995 1.11283,3.97861 1.10792,3.99437 1.1168,4.00525 1.13707,4.02996 1.16773,4.04271 1.18292,4.06452 1.19677,4.07116 1.20129,4.07108 1.22086,4.06441 1.22284,4.07687 1.26054,4.09689 1.27231,4.11205 1.25915,4.12532 1.24334,4.12888 1.24389,4.14307 1.2848,4.16162 1.28786,4.17032 1.27674,4.18325 1.2971,4.18437 1.31737,4.1792 1.31589,4.19585 1.32826,4.20671 1.31111,4.21498 1.30669,4.22923 1.32374,4.23399 1.34186,4.25251 1.32737,4.27176 1.33078,4.31465 1.33333,4.32034 1.33499,4.32547 1.35059,4.33385 1.38894,4.31447 1.40264,4.3332 1.40214,4.33936 1.39825,4.35142 1.39208,4.3545 1.39917,4.37787 1.38984,4.4363 1.40913,4.43507 1.42245,4.45178 1.41835,4.45782 1.41383,4.46502 1.41293,4.47402 1.40329,4.48513 1.40035,4.50272 1.383,4.52734 1.39711,4.55213 1.3863,4.57037 1.3879,4.58247 1.39756,4.59747 1.38787,4.61241 1.37685,4.64502 1.34086,4.61116 1.3048,4.56049 1.28838,4.54819 1.2749,4.50702 " attrib:gid="15"/>
  <polygon id="MADHYA_PRADESH" fill="#33CC00" stroke="black" stroke-width="0.0018165" stroke-linecap="round" stroke-linejoin="round" points="1.07301,2.0389 1.07834,2.04018 1.09704,2.04474 1.08769,2.06051 1.08105,2.05484 1.0839,2.06744 1.10899,2.06976 1.09539,2.07705 1.07135,2.06622 1.07707,2.07602 1.06868,2.08901 1.13044,2.09959 1.16135,2.08663 1.16871,2.10848 1.18015,2.11695 1.17591,2.13284 1.15734,2.13764 1.15388,2.14869 1.16437,2.1601 1.15587,2.1825 1.16551,2.18848 1.1557,2.20531 1.16013,2.21296 1.1447,2.2092 1.13979,2.21894 1.14501,2.22327 1.15364,2.2377 1.17184,2.24093 1.1763,2.23883 1.17952,2.23708 1.17694,2.2266 1.19779,2.22302 1.18815,2.20294 1.21433,2.18886 1.21757,2.16134 1.22524,2.15675 1.22705,2.17055 1.27881,2.18059 1.29047,2.16646 1.29928,2.16645 1.30362,2.18041 1.3206,2.18938 1.33244,2.18702 1.34125,2.17702 1.32571,2.16187 1.32474,2.13981 1.32554,2.12511 1.3427,2.13614 1.3634,2.12336 1.35315,2.08692 1.32247,2.08765 1.31716,2.08045 1.33644,2.07281 1.32953,2.04932 1.33435,2.04286 1.37796,2.03408 1.40097,2.0375 1.41241,2.03209 1.41486,2.01992 1.4019,1.98396 1.38317,1.99727 1.359,1.99871 1.32033,2.00398 1.29792,1.99711 1.28047,1.97616 1.28284,1.95153 1.27229,1.92767 1.2894,1.91329 1.31316,1.91151 1.33126,1.88237 1.42106,1.83494 1.43858,1.83148 1.49344,1.79355 1.52336,1.78727 1.56852,1.76608 1.5848,1.76401 1.60021,1.77518 1.61543,1.77316 1.64644,1.78042 1.67354,1.80423 1.68845,1.8307 1.68787,1.85087 1.67713,1.85427 1.66428,1.87287 1.66364,1.88501 1.67248,1.88993 1.66128,1.9068 1.65832,1.91102 1.65202,1.91067 1.65068,1.92911 1.63677,1.93059 1.6395,1.94659 1.61641,1.96294 1.60368,1.96064 1.58885,1.95935 1.5814,1.96208 1.55856,1.99344 1.58001,2.02792 1.56556,2.04249 1.56791,2.04999 1.54081,2.06141 1.53687,2.07196 1.55884,2.09869 1.54279,2.11871 1.54928,2.13007 1.57164,2.16051 1.59658,2.14894 1.6347,2.18221 1.65256,2.17399 1.64929,2.16557 1.66361,2.14689 1.67155,2.13977 1.66886,2.13695 1.65367,2.13298 1.6587,2.12759 1.65309,2.11357 1.62841,2.10937 1.63529,2.06713 1.6113,2.05488 1.60264,2.01841 1.58165,2.00563 1.60817,1.98047 1.63034,1.98828 1.64642,1.97758 1.65338,1.96122 1.6606,1.96496 1.66192,1.98931 1.65323,1.98805 1.63416,2.00694 1.63814,2.01153 1.64892,1.99887 1.65662,2.00173 1.65172,2.02163 1.66844,2.01035 1.67903,2.01398 1.6741,2.0217 1.69409,2.03234 1.71663,2.03229 1.71146,2.01008 1.71323,1.99836 1.7187,1.99945 1.74433,2.00974 1.72955,2.04096 1.76161,2.02771 1.8024,2.03412 1.80173,2.01621 1.81951,2.01309 1.84382,1.99615 1.86944,1.98804 1.87593,2.01088 1.89465,2.01721 1.89315,2.0279 1.88023,2.02974 1.88415,2.03508 1.86976,2.04674 1.88592,2.05156 1.89606,2.04321 1.90027,2.05738 1.91266,2.04952 1.90888,2.03771 1.91734,2.04123 1.92222,2.03119 1.94173,2.04446 1.94756,2.04295 1.93772,2.03646 1.96193,2.03353 1.96887,2.02588 1.9524,2.05655 1.95733,2.06633 1.99153,2.06156 2.00376,2.06782 2.01544,2.06351 2.02682,2.0263 2.04697,2.03201 2.04623,2.04198 2.05897,2.04093 2.06127,2.02087 2.07023,2.01696 2.07963,2.03302 2.0756,2.0391 2.0895,2.04866 2.1166,2.05208 2.12921,2.0725 2.15121,2.07891 2.16488,2.08954 2.17338,2.09066 2.17254,2.10193 2.18539,2.10167 2.1894,2.1125 2.19794,2.11655 2.20192,2.1021 2.24809,2.10496 2.26223,2.11446 2.26588,2.12515 2.2539,2.12349 2.25108,2.14562 2.26328,2.16464 2.25065,2.18784 2.24046,2.18608 2.23703,2.1932 2.26056,2.20726 2.25975,2.21869 2.29305,2.23335 2.32292,2.22534 2.33526,2.2087 2.36817,2.21009 2.38896,2.22209 2.40057,2.25515 2.41534,2.2738 2.43186,2.27735 2.43856,2.26601 2.45032,2.26641 2.44237,2.30512 2.45803,2.30983 2.45522,2.32376 2.45156,2.33416 2.46757,2.36263 2.50275,2.36773 2.50444,2.37692 2.47892,2.41368 2.44741,2.43174 2.44299,2.43522 2.45494,2.45353 2.38022,2.49554 2.37606,2.51192 2.38593,2.53196 2.38239,2.54313 2.35387,2.55572 2.36193,2.56604 2.34707,2.58484 2.35221,2.61064 2.33681,2.61059 2.31727,2.64686 2.24427,2.64252 2.23796,2.64458 2.2387,2.65608 2.21414,2.69076 2.19239,2.69319 2.2022,2.75482 2.19778,2.80795 2.21131,2.81978 2.24829,2.83025 2.23333,2.85288 2.23122,2.84135 2.20086,2.83703 2.19299,2.84469 2.17839,2.82264 2.13168,2.80754 2.11986,2.81617 2.11721,2.83426 2.1418,2.85137 2.14379,2.88763 2.16563,2.91294 2.17312,2.98828 2.1531,3.01595 2.12982,3.02776 2.13572,3.04006 2.06142,3.10073 2.0576,3.13927 2.04719,3.15861 2.01459,3.152 1.9945,3.16278 1.9879,3.15956 1.98195,3.10438 1.96522,3.10542 1.96557,3.09635 1.95151,3.10447 1.94475,3.07247 1.92392,3.04127 1.89418,3.03479 1.88164,3.0346 1.86885,3.01728 1.8881,3.00267 1.872,2.97297 1.87582,2.96161 1.89464,2.95047 1.91602,2.91374 1.92784,2.91639 1.93609,2.9347 1.96635,2.92151 1.95912,2.91254 1.96875,2.90095 1.9603,2.89284 1.93318,2.88017 1.91659,2.85333 1.89273,2.85092 1.90722,2.84179 1.89627,2.83843 1.89829,2.82953 1.91029,2.83504 1.91428,2.82744 1.90982,2.80198 1.8949,2.79846 1.89497,2.78078 1.92595,2.77345 1.92505,2.73709 1.90847,2.72336 1.92119,2.71566 1.91777,2.69424 1.90272,2.67205 1.90175,2.64735 1.93771,2.62399 1.93851,2.6161 1.89774,2.60948 1.89703,2.59356 1.88053,2.57704 1.82442,2.58045 1.80366,2.58899 1.76462,2.57928 1.74763,2.56414 1.7182,2.55506 1.71054,2.56665 1.67176,2.57688 1.66898,2.59049 1.61896,2.59699 1.59366,2.58802 1.59191,2.57582 1.58803,2.57226 1.55522,2.58281 1.52775,2.60265 1.48063,2.60969 1.44924,2.60484 1.4396,2.5892 1.43788,2.58292 1.46141,2.5828 1.44612,2.54661 1.37419,2.55673 1.36394,2.57229 1.33954,2.57508 1.33927,2.59311 1.31822,2.61055 1.31796,2.62145 1.2894,2.63664 1.27465,2.65122 1.23955,2.64937 1.22395,2.60463 1.13501,2.60179 1.11378,2.60919 1.09995,2.6029 1.08545,2.59699 1.06836,2.57282 1.00095,2.55611 0.993552,2.54598 0.992687,2.52284 0.980911,2.5071 0.955544,2.51814 0.932165,2.51418 0.933012,2.48698 0.921229,2.45757 0.937961,2.458 0.949655,2.4471 0.93735,2.43828 0.926785,2.44043 0.921104,2.42471 0.928237,2.4311 0.967377,2.41207 0.984517,2.384 0.986052,2.37738 0.964975,2.36495 0.96151,2.34936 0.992146,2.34215 1.02938,2.32859 0.997609,2.30838 1.00928,2.28719 1.03315,2.27858 1.05602,2.26415 1.05923,2.24298 1.02029,2.18365 1.02588,2.16786 0.998608,2.16415 1.01023,2.13066 1.0001,2.12929 0.999463,2.11607 1.00952,2.08482 1.02471,2.10598 1.03701,2.08603 1.01527,2.08153 1.01251,2.0519 1.04409,2.07246 1.05942,2.06263 1.06514,2.03895 1.07302,2.03889 " attrib:gid="17"/>
  <polygon id="MAHARASHTRA" fill="#33CC00" stroke="black" stroke-width="0.0018165" stroke-linecap="round" stroke-linejoin="round" points="1.27463,2.65122 1.28939,2.63664 1.31794,2.62145 1.3182,2.61055 1.33926,2.59311 1.33953,2.57508 1.36392,2.57229 1.37418,2.55673 1.44611,2.54661 1.4614,2.5828 1.43787,2.58293 1.43959,2.5892 1.44923,2.60484 1.48061,2.6097 1.52774,2.60265 1.55521,2.58281 1.58801,2.57227 1.5919,2.57583 1.59365,2.58802 1.61895,2.59699 1.66897,2.5905 1.67175,2.57688 1.71052,2.56665 1.71818,2.55506 1.74761,2.56415 1.76461,2.57929 1.80365,2.58899 1.8244,2.58046 1.88051,2.57704 1.89701,2.59357 1.89773,2.60948 1.9385,2.6161 1.93769,2.62399 1.90173,2.64736 1.90271,2.67206 1.91775,2.69425 1.92117,2.71567 1.90846,2.72337 1.92504,2.7371 1.92594,2.77346 1.89495,2.78078 1.89489,2.79846 1.9098,2.80198 1.91426,2.82745 1.91027,2.83505 1.89828,2.82953 1.89626,2.83843 1.9072,2.84179 1.89272,2.85093 1.91658,2.85334 1.93317,2.88017 1.96028,2.89285 1.96874,2.90096 1.9591,2.91255 1.96633,2.92151 1.93608,2.93471 1.92783,2.91639 1.91601,2.91374 1.89463,2.95047 1.8758,2.96162 1.87198,2.97297 1.88808,3.00268 1.86883,3.01728 1.84449,3.01562 1.81774,3.00635 1.82716,2.97874 1.81097,2.96375 1.81204,2.95655 1.83269,2.92437 1.83043,2.91631 1.80571,2.9013 1.80101,2.88907 1.75227,2.89695 1.71884,2.88274 1.71039,2.90547 1.66829,2.89103 1.64526,2.87111 1.64399,2.86034 1.63484,2.85433 1.59504,2.86026 1.57189,2.83378 1.57073,2.84199 1.57766,2.85288 1.5682,2.86947 1.57183,2.88699 1.56817,2.90485 1.55337,2.91386 1.55294,2.93501 1.5333,2.94334 1.51749,2.92289 1.50117,2.92877 1.50054,2.95682 1.48529,2.9758 1.50022,2.98532 1.49828,3.00246 1.48487,3.02214 1.48866,3.03751 1.45419,3.04919 1.45538,3.05998 1.44756,3.06336 1.45306,3.08173 1.42392,3.08001 1.42582,3.06301 1.40878,3.0642 1.39329,3.0792 1.39822,3.08735 1.3837,3.10551 1.35375,3.1089 1.35866,3.11489 1.34825,3.14339 1.328,3.14797 1.33582,3.15737 1.32062,3.17587 1.29461,3.16759 1.27854,3.18569 1.27205,3.19299 1.2609,3.19158 1.27072,3.22771 1.26645,3.23282 1.21968,3.22768 1.21318,3.23326 1.19416,3.23504 1.15852,3.21093 1.14829,3.22423 1.15347,3.23435 1.16177,3.28547 1.11009,3.28562 1.09653,3.28864 1.10349,3.298 1.08454,3.30719 1.06464,3.28356 1.0425,3.28521 1.03941,3.31625 1.005,3.32435 1.00099,3.34063 0.984502,3.34449 0.984148,3.33715 0.967333,3.33483 0.956828,3.3495 0.936842,3.35117 0.950424,3.37128 0.947463,3.38777 0.96787,3.39661 0.971281,3.41713 0.953702,3.42319 0.964747,3.42881 0.948944,3.47056 0.930805,3.47665 0.923109,3.46807 0.916025,3.48021 0.912788,3.48649 0.900426,3.49605 0.874446,3.46926 0.854306,3.47747 0.837923,3.4451 0.82654,3.44342 0.797798,3.35165 0.802409,3.34647 0.793311,3.26823 0.78103,3.23403 0.789039,3.23552 0.777229,3.21974 0.774872,3.19518 0.785222,3.19011 0.774236,3.18555 0.759375,3.13545 0.763449,3.1228 0.751436,3.11986 0.743582,3.09015 0.744662,3.08248 0.751763,3.08269 0.740207,3.06779 0.742976,3.04006 0.733471,3.01156 0.738241,3.00133 0.748616,3.00359 0.748138,2.99453 0.736684,2.9877 0.753512,2.95448 0.733805,2.97109 0.72867,2.97154 0.727136,2.95916 0.719879,2.92245 0.733813,2.91337 0.717096,2.90887 0.715418,2.89238 0.72515,2.88846 0.724034,2.87885 0.709838,2.88133 0.701951,2.84159 0.704094,2.82181 0.714259,2.82076 0.724646,2.76419 0.735685,2.76973 0.743843,2.77997 0.743133,2.79394 0.75486,2.80206 0.780768,2.80197 0.786317,2.79073 0.819402,2.78184 0.812854,2.75083 0.827244,2.73834 0.813946,2.71127 0.82553,2.70116 0.850944,2.72529 0.86362,2.72508 0.874673,2.7219 0.878418,2.70513 0.897636,2.69872 0.89412,2.68415 0.890891,2.66427 0.866072,2.64498 0.866783,2.63496 0.893712,2.61752 0.900052,2.6035 0.963401,2.58498 0.962338,2.57856 0.933828,2.57604 0.899652,2.58326 0.88754,2.58464 0.877354,2.56405 0.892726,2.55648 0.880779,2.53558 0.896428,2.52845 0.911579,2.53147 0.932152,2.51418 0.95553,2.51814 0.980899,2.5071 0.992673,2.52284 0.993539,2.54598 1.00093,2.55611 1.06835,2.57282 1.08544,2.59699 1.09993,2.6029 1.11376,2.60919 1.135,2.60179 1.22393,2.60463 1.23954,2.64937 1.27463,2.65122 " attrib:gid="18"/>
  <polygon id="MANIPUR" fill="#33FF33" stroke="black" stroke-width="0.0018165" stroke-linecap="round" stroke-linejoin="round" points="4.04625,1.94859 4.06836,1.9526 4.09767,1.92776 4.11127,1.92395 4.10717,1.94361 4.126,1.95752 4.11359,1.99211 4.13825,2.02173 4.11567,2.07555 4.10935,2.07428 4.08936,2.11287 4.07299,2.14309 4.06188,2.18736 4.04317,2.20351 4.02801,2.20812 3.98296,2.19837 3.9858,2.18808 3.96602,2.19004 3.92226,2.18892 3.89226,2.17639 3.86449,2.17779 3.85785,2.1696 3.86763,2.15043 3.86286,2.13753 3.86574,2.10766 3.88396,2.10405 3.88572,2.08841 3.87106,2.07431 3.87951,2.05787 3.88794,2.05748 3.89305,2.04933 3.90106,2.03787 3.91645,1.99254 3.92715,1.98204 3.93649,1.98424 3.94395,1.99218 3.96613,1.99525 3.98861,1.96174 3.98428,1.94625 4.04625,1.94859 " attrib:gid="19"/>
  <polygon id="MEGHALAYA" fill="#CCCCCC" stroke="black" stroke-width="0.0018165" stroke-linecap="round" stroke-linejoin="round" points="3.73635,1.92877 3.76418,1.9202 3.7972,1.94423 3.81662,1.94979 3.7951,1.96407 3.80609,1.9768 3.83519,1.98074 3.83152,1.99797 3.79155,2.01825 3.7821,2.0227 3.77142,2.03207 3.73277,2.01601 3.71101,2.00429 3.65273,2.01694 3.61221,2.00899 3.56721,2.00417 3.54555,2.01037 3.44754,2.01429 3.3677,1.99372 3.36338,1.98876 3.37289,1.94541 3.36531,1.91441 3.37093,1.90859 3.39554,1.90877 3.40856,1.8974 3.46231,1.88596 3.47677,1.89803 3.48597,1.89041 3.48946,1.89753 3.55037,1.89828 3.54814,1.90386 3.55196,1.91072 3.5788,1.9037 3.57822,1.92657 3.60448,1.90881 3.62911,1.90506 3.62201,1.89107 3.64728,1.88004 3.65087,1.89717 3.65823,1.89636 3.66829,1.87166 3.67804,1.8697 3.69891,1.88188 3.73252,1.87253 3.74091,1.87137 3.7475,1.87214 3.72958,1.91167 3.72772,1.92182 3.73635,1.92876 " attrib:gid="20"/>
  <polygon id="MIZORAM" fill="#CCCCCC" stroke="black" stroke-width="0.0018165" stroke-linecap="round" stroke-linejoin="round" points="3.84394,2.37319 3.83274,2.38827 3.85467,2.44442 3.84809,2.46665 3.83608,2.47176 3.823,2.49977 3.78119,2.47792 3.7761,2.49926 3.76705,2.50229 3.76996,2.48109 3.75026,2.43766 3.75522,2.3896 3.73087,2.36472 3.73206,2.33426 3.72227,2.31306 3.73242,2.30302 3.72035,2.28794 3.71376,2.26152 3.71915,2.24193 3.71167,2.22986 3.71194,2.22018 3.7625,2.19594 3.76505,2.15761 3.77045,2.16569 3.77716,2.17164 3.79349,2.17773 3.82813,2.1211 3.84127,2.13957 3.86286,2.13753 3.86763,2.15044 3.85785,2.16961 3.86449,2.17779 3.89226,2.1764 3.92226,2.18893 3.8874,2.25064 3.89291,2.28063 3.87435,2.3206 3.85355,2.34368 3.84927,2.35469 3.84394,2.3732 " attrib:gid="21"/>
  <polygon id="NAGALAND" fill="#CCCCCC" stroke="black" stroke-width="0.0018165" stroke-linecap="round" stroke-linejoin="round" points="4.10467,1.76623 4.11762,1.75938 4.13774,1.74946 4.14847,1.73262 4.17014,1.73019 4.19867,1.71545 4.19801,1.75116 4.21232,1.76397 4.20127,1.77124 4.193,1.77845 4.1858,1.80352 4.20075,1.8659 4.17604,1.89392 4.17805,1.91674 4.16969,1.92221 4.14325,1.95528 4.12601,1.95752 4.10718,1.9436 4.11128,1.92395 4.09767,1.92776 4.06836,1.9526 4.04625,1.94859 3.98428,1.94625 3.98861,1.96174 3.96613,1.99526 3.94395,1.99219 3.93648,1.98424 3.93462,1.96291 3.92101,1.95096 3.92271,1.93639 3.97253,1.88983 3.99499,1.89651 4.01282,1.88691 4.00795,1.87697 4.01552,1.84614 4.03825,1.81876 4.05583,1.79113 4.06282,1.80431 4.09289,1.76658 4.10468,1.76623 " attrib:gid="22"/>
  <polygon id="ORISSA" fill="#FFFF66" stroke="black" stroke-width="0.0018165" stroke-linecap="round" stroke-linejoin="round" points="2.4474,2.43175 2.49072,2.45998 2.51364,2.4586 2.52983,2.44869 2.60773,2.44428 2.61491,2.44546 2.61684,2.45507 2.60445,2.50263 2.64158,2.50871 2.65737,2.48848 2.70814,2.50242 2.72749,2.49871 2.72266,2.51435 2.72869,2.51719 2.74718,2.51133 2.759,2.48485 2.75327,2.47911 2.75302,2.43321 2.76196,2.43101 2.86197,2.47902 2.86335,2.48821 2.90379,2.50447 2.91219,2.53511 2.92157,2.53419 2.93347,2.51581 2.94361,2.53585 2.97412,2.54448 2.98491,2.57572 2.91988,2.59355 2.88196,2.63753 2.90681,2.69755 2.8974,2.69952 2.91651,2.71141 2.87994,2.74002 2.8707,2.75408 2.87579,2.7567 2.87971,2.7462 2.88188,2.76108 2.8207,2.82386 2.79798,2.8375 2.69554,2.8667 2.69005,2.87662 2.62871,2.90568 2.57648,2.95567 2.56296,2.95676 2.54594,2.95303 2.54891,2.96102 2.5141,2.97715 2.51025,2.99204 2.49318,3.00934 2.43088,3.00134 2.4209,2.97335 2.4176,2.97904 2.41416,2.98401 2.39912,2.97247 2.39351,2.95091 2.36328,2.97738 2.34939,2.97539 2.34477,2.97905 2.35762,2.99555 2.33402,3.01124 2.3171,3.01036 2.29778,3.03334 2.30314,3.07187 2.28293,3.07138 2.26876,3.06122 2.2645,3.07224 2.239,3.09156 2.22936,3.09084 2.22038,3.05558 2.20018,3.05357 2.19159,3.06252 2.19625,3.08532 2.18386,3.12014 2.17686,3.12523 2.15779,3.12023 2.13974,3.13124 2.1254,3.13366 2.10893,3.1388 2.08277,3.14903 2.04717,3.15862 2.05758,3.13928 2.06141,3.10073 2.1357,3.04007 2.12981,3.02776 2.15308,3.01595 2.1731,2.98829 2.16561,2.91294 2.14377,2.88764 2.14179,2.85137 2.11719,2.83426 2.11984,2.81618 2.13166,2.80754 2.17837,2.82264 2.19297,2.8447 2.20084,2.83704 2.23121,2.84135 2.23331,2.85289 2.24827,2.83025 2.21129,2.81978 2.19776,2.80795 2.20218,2.75483 2.19237,2.6932 2.21412,2.69077 2.23868,2.65608 2.23794,2.64458 2.24426,2.64252 2.31725,2.64686 2.33679,2.6106 2.35219,2.61065 2.34705,2.58485 2.36191,2.56605 2.35385,2.55572 2.38237,2.54313 2.38592,2.53196 2.37605,2.51192 2.38021,2.49554 2.45492,2.45353 2.44297,2.43523 2.44739,2.43175 " attrib:gid="23"/>
  <polygon id="PUNJAB" fill="#CCCCCC" stroke="black" stroke-width="0.0018165" stroke-linecap="round" stroke-linejoin="round" points="1.01923,1.09544 0.993074,1.09669 0.985473,1.0893 0.987062,1.05858 1.00338,1.04237 0.984566,0.997574 1.00369,0.975643 1.05263,0.948918 1.10281,0.937268 1.12005,0.913884 1.11342,0.906944 1.14738,0.91002 1.1553,0.890862 1.18852,0.882584 1.19897,0.888817 1.20086,0.896941 1.16958,0.916907 1.15436,0.947258 1.1841,0.959838 1.21034,0.979328 1.20839,0.992355 1.22152,1.00834 1.23221,1.04727 1.24665,1.07161 1.25598,1.06614 1.26513,1.05508 1.2758,1.04931 1.27867,1.06638 1.30622,1.07467 1.3104,1.08614 1.30576,1.11357 1.33141,1.1285 1.33654,1.14091 1.34186,1.14723 1.31743,1.14853 1.31544,1.15758 1.34073,1.16027 1.35435,1.17668 1.35052,1.20575 1.32844,1.20503 1.32048,1.2118 1.29831,1.25708 1.27161,1.24442 1.26897,1.24991 1.24263,1.25025 1.25062,1.2622 1.23293,1.26961 1.2441,1.29065 1.23633,1.29226 1.22607,1.29258 1.21853,1.30632 1.20351,1.31215 1.19306,1.30555 1.17961,1.29564 1.14626,1.30461 1.11894,1.30073 1.09909,1.3359 1.08247,1.32539 1.08248,1.29245 1.07279,1.29931 1.07481,1.28659 1.05347,1.28661 1.0117,1.26749 0.995234,1.27443 0.985806,1.27496 0.978178,1.27402 0.969042,1.27181 0.884542,1.26833 0.880924,1.26029 0.895263,1.23603 0.898035,1.22345 0.885758,1.20387 0.894776,1.19727 0.891525,1.19156 0.914591,1.18004 0.967557,1.11877 1.01923,1.09543 " attrib:gid="25"/>
  <polygon id="RAJASTHAN" fill="#33CC00" stroke="black" stroke-width="0.0018165" stroke-linecap="round" stroke-linejoin="round" points="1.32474,2.13981 1.32571,2.16187 1.34124,2.17702 1.33244,2.18702 1.32059,2.18938 1.30362,2.18042 1.29927,2.16645 1.29046,2.16646 1.2788,2.18059 1.22705,2.17055 1.22524,2.15676 1.21756,2.16134 1.21432,2.18886 1.18815,2.20294 1.19779,2.22302 1.17693,2.2266 1.17951,2.23708 1.1763,2.23883 1.17183,2.24093 1.15363,2.2377 1.145,2.22327 1.13978,2.21894 1.14469,2.20921 1.16013,2.21296 1.15569,2.20531 1.1655,2.18848 1.15586,2.1825 1.16437,2.1601 1.15388,2.14869 1.15733,2.13764 1.17591,2.13285 1.18014,2.11695 1.1687,2.10849 1.16134,2.08663 1.13043,2.09959 1.06867,2.08901 1.07706,2.07602 1.07134,2.06622 1.09539,2.07705 1.10899,2.06976 1.08389,2.06745 1.08104,2.05484 1.08769,2.06052 1.09703,2.04474 1.07833,2.04018 1.07301,2.0389 1.06512,2.03896 1.05941,2.06264 1.04408,2.07247 1.01249,2.05191 1.01525,2.08155 1.03699,2.08604 1.02469,2.10599 1.00951,2.08483 0.999444,2.11608 1.00009,2.1293 1.01021,2.13067 0.998589,2.16416 1.02586,2.16787 1.02028,2.18366 1.05921,2.24299 1.05601,2.26416 1.03313,2.27859 1.00926,2.2872 0.997591,2.3084 1.02936,2.32861 0.992128,2.34216 0.961492,2.34937 0.953131,2.33097 0.933817,2.33125 0.928094,2.31325 0.911687,2.30153 0.889234,2.2939 0.862343,2.28695 0.852377,2.25669 0.840534,2.26148 0.820822,2.23076 0.781552,2.18282 0.760626,2.19539 0.740375,2.17412 0.736966,2.16462 0.754586,2.14152 0.738823,2.1318 0.738941,2.12312 0.739002,2.11866 0.73067,2.11827 0.712532,2.13948 0.607269,2.10679 0.616951,2.10246 0.576897,2.08836 0.550253,2.08942 0.545929,2.09555 0.497419,2.08513 0.480145,2.08777 0.453502,2.09376 0.446226,2.08734 0.437236,2.08759 0.431739,2.08171 0.400907,2.03042 0.396582,2.0075 0.369547,1.97203 0.364529,1.92145 0.312806,1.92197 0.285165,1.90114 0.276042,1.87038 0.288933,1.84743 0.288682,1.78601 0.242285,1.78397 0.195522,1.7579 0.183675,1.73946 0.205963,1.68835 0.277187,1.62877 0.307951,1.57833 0.349924,1.55746 0.370481,1.56865 0.386141,1.60387 0.409931,1.61064 0.475328,1.58971 0.536493,1.58837 0.563556,1.57902 0.573072,1.55103 0.617436,1.50663 0.646603,1.45379 0.687091,1.43474 0.734359,1.40722 0.760741,1.37782 0.791813,1.32496 0.810884,1.27023 0.869507,1.25194 0.895256,1.23604 0.880919,1.2603 0.884535,1.26834 0.969035,1.27182 0.978172,1.27404 0.9858,1.27497 0.973773,1.30324 0.992424,1.31331 0.99219,1.34583 0.980914,1.35447 0.991397,1.37375 1.03847,1.36536 1.04157,1.37705 1.08069,1.38094 1.08652,1.38712 1.10289,1.37456 1.10379,1.38295 1.11435,1.38404 1.11362,1.41431 1.13163,1.4226 1.12563,1.43437 1.13597,1.47432 1.15043,1.49804 1.18866,1.52428 1.21022,1.54061 1.20229,1.56128 1.20564,1.57493 1.19719,1.5879 1.20415,1.60606 1.21577,1.60791 1.23213,1.61048 1.24095,1.6106 1.22859,1.5843 1.23707,1.57628 1.25932,1.57346 1.26059,1.56023 1.25386,1.55545 1.27827,1.55889 1.28864,1.5865 1.33461,1.54736 1.35132,1.55696 1.35277,1.60349 1.34262,1.63537 1.35226,1.63595 1.36959,1.62213 1.36714,1.6118 1.40539,1.61419 1.42645,1.67147 1.45616,1.70159 1.4648,1.69973 1.45266,1.7204 1.43863,1.72677 1.47487,1.73785 1.43251,1.75638 1.42675,1.7752 1.4334,1.77902 1.43719,1.76471 1.48845,1.75396 1.51993,1.76332 1.53256,1.74719 1.55078,1.74657 1.55607,1.75682 1.53206,1.77259 1.52334,1.78729 1.49342,1.79356 1.43857,1.83149 1.42105,1.83495 1.33124,1.88239 1.31314,1.91153 1.28938,1.91331 1.27228,1.92769 1.28283,1.95155 1.28046,1.97618 1.29791,1.99712 1.32031,2.004 1.35898,1.99873 1.38316,1.99729 1.40189,1.98397 1.41485,2.01994 1.4124,2.03211 1.40096,2.03751 1.37795,2.0341 1.33434,2.04288 1.32951,2.04934 1.33643,2.07283 1.31715,2.08047 1.32245,2.08767 1.35313,2.08694 1.36338,2.12338 1.34268,2.13616 1.32552,2.12513 1.32473,2.13983 " attrib:gid="26"/>
  <polygon id="SIKKIM" fill="#CCCCCC" stroke="black" stroke-width="0.0018165" stroke-linecap="round" stroke-linejoin="round" points="3.15717,1.70537 3.14669,1.71561 3.12853,1.71158 3.1036,1.71611 3.07572,1.70326 3.08097,1.66484 3.09067,1.63368 3.10339,1.61189 3.09534,1.58976 3.13907,1.58024 3.16606,1.56187 3.18247,1.56189 3.2031,1.57423 3.21439,1.59583 3.19755,1.6639 3.2141,1.68219 3.19286,1.70365 3.179,1.70582 3.15717,1.70536 " attrib:gid="27"/>
  <polygon id="TAMIL_NADU" fill="#CCCCCC" stroke="black" stroke-width="0.0018165" stroke-linecap="round" stroke-linejoin="round" points="1.39825,4.35142 1.40214,4.33936 1.40264,4.3332 1.38894,4.31447 1.35059,4.33385 1.33499,4.32547 1.33333,4.32034 1.33078,4.31465 1.32737,4.27175 1.34186,4.25251 1.32374,4.23399 1.30669,4.22923 1.31111,4.21498 1.32826,4.20671 1.31589,4.19585 1.31737,4.1792 1.2971,4.18437 1.27674,4.18325 1.28786,4.17032 1.2848,4.16162 1.24389,4.14307 1.24334,4.12888 1.25915,4.12532 1.27231,4.11205 1.2861,4.10897 1.29498,4.12605 1.33488,4.11658 1.35211,4.08966 1.36553,4.09064 1.37457,4.10071 1.40169,4.0912 1.41254,4.09553 1.44521,4.07208 1.46342,4.07046 1.46158,4.06259 1.48087,4.05064 1.47573,4.03432 1.43455,4.0343 1.42942,4.02057 1.45664,3.99876 1.46006,3.99025 1.44999,3.9668 1.46229,3.95404 1.4727,3.95466 1.4808,3.9454 1.48672,3.92178 1.49128,3.92347 1.49772,3.92241 1.5185,3.93517 1.53015,3.92689 1.55427,3.9375 1.55374,3.94397 1.56523,3.95208 1.58272,3.96217 1.60597,3.93347 1.61499,3.89837 1.63284,3.88751 1.71124,3.90095 1.72092,3.8982 1.7231,3.88929 1.73892,3.87476 1.74314,3.85162 1.79868,3.86673 1.80236,3.85869 1.82352,3.85082 1.83766,3.83289 1.83635,3.82297 1.85737,3.83036 1.87205,3.83674 1.8861,3.85519 1.88469,3.88249 1.88084,3.89354 1.87788,3.9033 1.85641,3.98826 1.8355,3.98591 1.85172,3.996 1.83471,4.02582 1.82636,4.04173 1.81379,4.05706 1.79147,4.05215 1.79088,4.05946 1.78198,4.05888 1.77221,4.06964 1.77659,4.07509 1.78636,4.07166 1.78199,4.07926 1.79744,4.08358 1.79176,4.09247 1.80298,4.0965 1.79771,4.15429 1.78989,4.16248 1.80105,4.16347 1.80902,4.21779 1.79116,4.21562 1.7961,4.22078 1.78971,4.23066 1.8074,4.24458 1.80923,4.33533 1.76238,4.33371 1.75963,4.32756 1.72219,4.33373 1.71211,4.35034 1.7126,4.37265 1.69549,4.39656 1.66865,4.43192 1.65954,4.45966 1.66351,4.4775 1.70082,4.49283 1.65007,4.49696 1.58047,4.51784 1.54107,4.5502 1.54009,4.56974 1.54642,4.57255 1.53634,4.58545 1.53515,4.61382 1.52213,4.63215 1.48189,4.65941 1.4478,4.66742 1.44264,4.67929 1.41784,4.6733 1.37685,4.64502 1.38787,4.6124 1.39756,4.59746 1.3879,4.58247 1.3863,4.57037 1.39711,4.55213 1.383,4.52733 1.40035,4.50272 1.40329,4.48513 1.41293,4.47402 1.41383,4.46501 1.41835,4.45782 1.42245,4.45178 1.40913,4.43507 1.38984,4.43629 1.39917,4.37786 1.39208,4.35449 " attrib:gid="28"/>
  <polygon id="TRIPURA" fill="#CCCCCC" stroke="black" stroke-width="0.0018165" stroke-linecap="round" stroke-linejoin="round" points="3.67077,2.24034 3.66184,2.23729 3.663,2.27577 3.64237,2.29638 3.6446,2.33159 3.62497,2.3548 3.60822,2.34828 3.57968,2.30723 3.58057,2.33047 3.56777,2.3253 3.56467,2.3078 3.54696,2.26327 3.55898,2.2356 3.60967,2.19529 3.61583,2.18205 3.6531,2.17595 3.66055,2.15995 3.6716,2.16796 3.67859,2.15946 3.698,2.16926 3.6994,2.14148 3.72748,2.13289 3.73329,2.11606 3.74625,2.11508 3.75272,2.14608 3.74464,2.1595 3.76505,2.15761 3.76251,2.19593 3.71194,2.22017 3.71167,2.22985 3.68004,2.24354 3.67078,2.24033 " attrib:gid="29"/>
  <polygon id="UTTAR_PRADESH" fill="#FFFF66" stroke="black" stroke-width="0.0018165" stroke-linecap="round" stroke-linejoin="round" points="1.46481,1.69972 1.45617,1.70158 1.42645,1.67146 1.4054,1.61417 1.40884,1.60923 1.41098,1.60269 1.43307,1.59838 1.43735,1.59199 1.42793,1.57248 1.43352,1.56479 1.44154,1.52456 1.41404,1.50518 1.41168,1.47946 1.38987,1.44594 1.38137,1.41463 1.37893,1.39798 1.37894,1.38987 1.38653,1.38439 1.3854,1.36977 1.3674,1.34385 1.37491,1.32927 1.385,1.32104 1.389,1.30141 1.38872,1.27744 1.39601,1.27255 1.40299,1.26405 1.43434,1.25028 1.45853,1.21389 1.45606,1.20913 1.49168,1.19142 1.47943,1.18388 1.48581,1.17168 1.4796,1.15152 1.48914,1.14164 1.48487,1.13156 1.49529,1.11623 1.51159,1.09434 1.53407,1.09632 1.5711,1.07459 1.595,1.08667 1.63914,1.09047 1.66281,1.10432 1.67317,1.10226 1.66512,1.07994 1.6869,1.04731 1.69971,1.05102 1.72062,1.07118 1.73971,1.10943 1.77542,1.12624 1.81097,1.12125 1.84764,1.15368 1.85273,1.14857 1.86445,1.15278 1.8614,1.18079 1.91673,1.20326 1.92855,1.20202 1.99821,1.24421 1.96425,1.24329 1.95147,1.25821 1.95151,1.2709 1.92386,1.27071 1.91139,1.28046 1.88866,1.33064 1.8659,1.35342 1.86469,1.36454 1.8794,1.37996 1.87786,1.39036 1.84558,1.41492 1.83989,1.43729 1.83781,1.45162 1.87729,1.46745 1.87291,1.47289 1.8923,1.48074 1.91329,1.48225 1.91392,1.47631 1.95032,1.50104 2.01408,1.52639 2.03929,1.55768 2.04978,1.55775 2.11006,1.59776 2.12459,1.60436 2.13638,1.59284 2.14959,1.59432 2.17713,1.60853 2.21645,1.63151 2.24823,1.62929 2.25889,1.65668 2.32657,1.66778 2.33717,1.67232 2.34144,1.68484 2.35312,1.68665 2.36064,1.66034 2.39627,1.66333 2.42595,1.68031 2.42049,1.68626 2.42207,1.69246 2.43245,1.69307 2.43945,1.68935 2.44774,1.69809 2.46087,1.75882 2.48771,1.7704 2.49572,1.7847 2.50834,1.78602 2.51001,1.80011 2.46959,1.79565 2.45524,1.81257 2.43913,1.8176 2.43625,1.82467 2.47583,1.84048 2.47674,1.85749 2.45172,1.86294 2.45635,1.88052 2.47956,1.89492 2.5312,1.92457 2.54432,1.93149 2.54913,1.94692 2.53392,1.94754 2.51704,1.93052 2.44448,1.9619 2.43292,1.97237 2.41362,1.99111 2.39665,1.99614 2.37421,2.00541 2.35826,2.01401 2.34942,2.03973 2.35221,2.07772 2.35963,2.08558 2.38076,2.11359 2.38076,2.12197 2.37142,2.12726 2.36207,2.13712 2.36749,2.15082 2.35628,2.18549 2.33526,2.2087 2.32293,2.22534 2.29306,2.23335 2.25975,2.21869 2.26057,2.20726 2.23704,2.1932 2.24047,2.18608 2.25066,2.18784 2.26328,2.16464 2.25109,2.14562 2.25391,2.12349 2.26589,2.12515 2.26223,2.11446 2.2481,2.10496 2.20193,2.1021 2.19795,2.11655 2.1894,2.1125 2.1854,2.10167 2.17254,2.10193 2.17339,2.09066 2.16488,2.08954 2.15122,2.07891 2.12922,2.0725 2.11661,2.05208 2.08951,2.04866 2.07561,2.0391 2.07963,2.03302 2.07024,2.01696 2.06128,2.02087 2.05898,2.04093 2.04624,2.04198 2.04697,2.03201 2.02683,2.0263 2.01545,2.06351 2.00377,2.06782 1.99154,2.06156 1.95734,2.06633 1.95241,2.05655 1.96887,2.02588 1.96194,2.03353 1.93773,2.03646 1.94757,2.04295 1.94174,2.04446 1.92223,2.03119 1.91735,2.04123 1.90889,2.03771 1.91267,2.04952 1.90028,2.05738 1.89606,2.04321 1.88592,2.05156 1.86977,2.04674 1.88416,2.03508 1.88024,2.02974 1.89315,2.0279 1.89466,2.01721 1.87594,2.01088 1.86945,1.98804 1.84383,1.99615 1.81951,2.01309 1.80174,2.01621 1.8024,2.03412 1.76162,2.02771 1.72955,2.04096 1.74434,2.00974 1.7187,1.99945 1.71324,1.99836 1.71146,2.01008 1.71664,2.03229 1.6941,2.03234 1.67411,2.0217 1.67903,2.01398 1.66845,2.01035 1.65173,2.02163 1.65663,2.00173 1.64892,1.99887 1.63815,2.01153 1.63417,2.00694 1.65324,1.98805 1.66193,1.98931 1.6606,1.96496 1.65339,1.96122 1.64642,1.97758 1.63035,1.98828 1.60817,1.98047 1.58166,2.00563 1.60265,2.01841 1.6113,2.05488 1.6353,2.06713 1.62842,2.10937 1.65309,2.11357 1.65871,2.12759 1.65368,2.13298 1.66886,2.13695 1.67156,2.13977 1.66361,2.14689 1.6493,2.16557 1.65257,2.17399 1.6347,2.18221 1.59659,2.14894 1.57165,2.16051 1.54929,2.13007 1.5428,2.11871 1.55885,2.09869 1.53688,2.07196 1.54081,2.06141 1.56792,2.04999 1.56557,2.04249 1.58002,2.02792 1.55856,1.99344 1.58141,1.96208 1.58885,1.95935 1.60369,1.96064 1.61641,1.96294 1.63951,1.94659 1.63677,1.93059 1.65069,1.92911 1.65203,1.91067 1.65833,1.91102 1.66129,1.9068 1.67249,1.88993 1.66365,1.88501 1.66428,1.87287 1.67714,1.85427 1.68788,1.85087 1.68846,1.8307 1.67354,1.80423 1.64645,1.78042 1.61543,1.77316 1.60021,1.77518 1.5848,1.76401 1.56853,1.76608 1.52337,1.78727 1.53208,1.77257 1.55609,1.7568 1.55081,1.74655 1.53259,1.74717 1.51995,1.7633 1.48847,1.75394 1.43722,1.7647 1.43342,1.779 1.42678,1.77518 1.43253,1.75636 1.4749,1.73783 1.43866,1.72675 1.45268,1.72038 1.46483,1.69972 " attrib:gid="30"/>
  <polygon id="WEST_BENGAL" fill="#FFFF66" stroke="black" stroke-width="0.0018165" stroke-linecap="round" stroke-linejoin="round" points="3.19185,2.18976 3.19937,2.20197 3.19299,2.21057 3.16059,2.21903 3.14275,2.25215 3.16352,2.2721 3.17193,2.27014 3.17036,2.27888 3.17761,2.28136 3.17691,2.30378 3.16631,2.31328 3.17163,2.31798 3.20416,2.32186 3.19162,2.35566 3.20085,2.36876 3.19834,2.42112 3.22506,2.48358 3.21196,2.49886 3.21529,2.52307 3.1813,2.51757 3.17624,2.50509 3.16448,2.50779 3.15964,2.50484 3.15192,2.52518 3.12751,2.54128 3.08939,2.54367 3.08632,2.52041 3.09498,2.49454 3.08918,2.4812 3.08033,2.48158 3.08715,2.49426 3.03931,2.55414 2.98491,2.57573 2.97412,2.54449 2.94361,2.53585 2.93347,2.51581 2.92158,2.53419 2.9122,2.53511 2.90379,2.50448 2.86335,2.48821 2.86197,2.47902 2.86979,2.48199 2.88527,2.46774 2.86608,2.44309 2.86599,2.42734 2.85178,2.42434 2.83794,2.40395 2.82257,2.39794 2.8204,2.38867 2.82222,2.37222 2.83609,2.36119 2.78194,2.35745 2.75436,2.33981 2.74453,2.33793 2.72952,2.32426 2.73059,2.29618 2.73318,2.28853 2.73523,2.28731 2.75873,2.28385 2.75605,2.27792 2.77242,2.27333 2.77844,2.28979 2.79794,2.29976 2.80514,2.29783 2.81574,2.27024 2.84627,2.25115 2.87412,2.25583 2.88596,2.23602 2.88214,2.22931 2.89016,2.21971 2.91305,2.23472 2.9437,2.22529 2.9513,2.22909 2.96559,2.21205 2.96095,2.20451 2.9733,2.19878 2.97521,2.20448 2.99707,2.20538 3.00686,2.18441 3.0386,2.17646 3.03477,2.1605 3.05147,2.14723 3.04937,2.119 3.06318,2.11133 3.06071,2.09692 3.05963,2.08022 3.05989,2.0429 3.04929,2.03191 3.04577,2.00807 3.06085,2.00445 3.05136,1.97546 3.06901,1.96698 3.08749,1.96868 3.09344,1.96151 3.07938,1.95387 3.08502,1.9389 3.05219,1.90771 3.05549,1.88866 3.07788,1.86285 3.12006,1.83797 3.11597,1.82032 3.10951,1.80797 3.09767,1.80252 3.10511,1.7656 3.09767,1.74225 3.07532,1.72224 3.07573,1.70327 3.10361,1.71611 3.12854,1.71158 3.1467,1.71562 3.15718,1.70537 3.17901,1.70582 3.19287,1.70366 3.21015,1.71338 3.21177,1.72765 3.21982,1.73146 3.25947,1.75871 3.29745,1.75168 3.33006,1.76033 3.33733,1.77217 3.36722,1.77323 3.36529,1.79464 3.36487,1.81775 3.36402,1.82488 3.36155,1.83397 3.3545,1.83925 3.34657,1.84552 3.3269,1.8568 3.3231,1.88459 3.2843,1.88055 3.25633,1.86089 3.24817,1.82907 3.22692,1.81453 3.2173,1.82673 3.23588,1.84697 3.21709,1.84152 3.19175,1.8464 3.19797,1.85994 3.19148,1.86236 3.17957,1.85614 3.18744,1.83811 3.14263,1.79627 3.13099,1.80268 3.13304,1.81619 3.1617,1.82732 3.15757,1.83559 3.13754,1.83891 3.12998,1.85755 3.10664,1.86715 3.09449,1.89715 3.09797,1.92373 3.11997,1.92402 3.15392,1.95873 3.1803,1.97281 3.20579,1.96395 3.20649,1.98221 3.23882,1.99594 3.2249,2.01528 3.15138,2.01691 3.13231,2.0619 3.11752,2.06404 3.11429,2.05416 3.10452,2.05569 3.08961,2.1045 3.10663,2.13086 3.12943,2.14357 3.19389,2.15701 3.19865,2.17703 3.19187,2.18976 " attrib:gid="31"/>
 </g>
 <g id="label" fill="#DA251D" font-weight="normal" font-size="0.13889" font-family="Arial">  
  <text id="UTTAR_PRADESH" x="1.67805" y="1.70728"  fill="#28166F" font-weight="normal" font-size="0.0593906" font-family="Arial">UTTAR PRADESH:0.0</text>
  <text id="JAMMU_AND_KASHMIR" x="0.936741" y="0.542229"  fill="#28166F" font-weight="normal" font-size="0.0593906" font-family="Arial">JAMMU AND KASHMIR:75.0</text>
  <text id="HIMACHAL_PRADESH" x="1.27588" y="0.952177"  fill="#28166F" font-weight="normal" font-size="0.0593906" font-family="Arial">HIMACHAL PRADESH:0.0</text>
  <text id="BIHAR" x="2.60232" y="2.10432"  fill="#28166F" font-weight="normal" font-size="0.0593906" font-family="Arial">BIHAR:75.0</text>
  <text id="MADHYA_PRADESH" x="1.46093" y="2.3627"  fill="#28166F" font-weight="normal" font-size="0.0593906" font-family="Arial">MADHYA PRADESH:75.0</text>
  <text id="MAHARASHTRA" x="0.890598" y="2.89739"  fill="#28166F" font-weight="normal" font-size="0.0593906" font-family="Arial">MAHARASHTRA:75.0</text>
  <text id="ORISSA" x="2.36098" y="2.77263"  fill="#28166F" font-weight="normal" font-size="0.0593906" font-family="Arial">ORISSA:0.0</text>
  <text id="RAJASTHAN" x="0.549135" y="1.8204"  fill="#28166F" font-weight="normal" font-size="0.0593906" font-family="Arial">RAJASTHAN:75.0</text>
  <text id="GUJARAT" x="0.388773" y="2.3672"  fill="#28166F" font-weight="normal" font-size="0.0593906" font-family="Arial">GUJARAT:0.0</text>
  <text id="TAMIL_NADU" x="1.39058" y="4.27203"  fill="#28166F" font-weight="normal" font-size="0.0593906" font-family="Arial">TAMIL NADU:0.0</text>
  <text id="ANDHRA_PRADESH" x="1.49672" y="3.28884"  fill="#28166F" font-weight="normal" font-size="0.0593906" font-family="Arial">ANDHRA PRADESH:0.0</text> 
  <text id="KERALA" x="1.02723" y="4.38811"  fill="#28166F" font-weight="normal" font-size="0.0593906" font-family="Arial">KERALA:0.0</text>
  <text id="ARUNACHAL_PRADESH" x="4.05383" y="1.49095"  fill="#28166F" font-weight="normal" font-size="0.0593906" font-family="Arial">ARUNACHAL PRADESH:0.0</text>
  <text id="MANIPUR" x="3.94722" y="2.11318"  fill="#28166F" font-weight="normal" font-size="0.0593906" font-family="Arial">MANIPUR:64.3</text>
  <text id="NAGALAND" x="4.0898" y="1.89931"  fill="#28166F" font-weight="normal" font-size="0.0593906" font-family="Arial">NAGALAND:0.0</text>  
  <text id="WEST_BENGAL" x="2.95014" y="2.39494"  fill="#28166F" font-weight="normal" font-size="0.0593906" font-family="Arial">WEST BENGAL:0.0</text>
  <text id="HARYANA" x="1.14162" y="1.39709"  fill="#28166F" font-weight="normal" font-size="0.0593906" font-family="Arial">HARYANA:75.0</text>
  <text id="PUNJAB" x="0.87662" y="1.15555"  fill="#28166F" font-weight="normal" font-size="0.0593906" font-family="Arial">PUNJAB:0.0</text>
  <text id="ASSAM" x="3.68698" y="1.82483"  fill="#28166F" font-weight="normal" font-size="0.0593906" font-family="Arial">ASSAM:24.6</text>
  <text id="MEGHALAYA" x="3.38065" y="1.96325"  fill="#28166F" font-weight="normal" font-size="0.0593906" font-family="Arial">MEGHALAYA:0.0</text>
  <text id="DELHI" x="1.35656" y="1.51904"  fill="#28166F" font-weight="normal" font-size="0.0593906" font-family="Arial">DELHI:0.0</text>
  <text id="MIZORAM" x="3.77774" y="2.32664"  fill="#28166F" font-weight="normal" font-size="0.0593906" font-family="Arial">MIZORAM:0.0</text>
  <text id="TRIPURA" x="3.3974" y="2.24143"  fill="#28166F" font-weight="normal" font-size="0.0593906" font-family="Arial">TRIPURA:0.0</text>  
  <text id="DADRA" x="0.477719" y="2.8007"  fill="#28166F" font-weight="normal" font-size="0.0593906" font-family="Arial">DADRA:0.0</text>
  <text id="CHANDIGARH" x="1.30958" y="1.15348"  fill="#28166F" font-weight="normal" font-size="0.0593906" font-family="Arial">CHANDIGARH:0.0</text>
  <text id="GOA" x="0.791077" y="3.54663"  fill="#28166F" font-weight="normal" font-size="0.0593906" font-family="Arial">GOA:0.0</text>
  <text id="KARNATAKA" x="0.855219" y="3.71717"  fill="#28166F" font-weight="normal" font-size="0.0593906" font-family="Arial">KARNATAKA:0.0</text>
  <text id="SIKKIM" x="3.11054" y="1.62236"  fill="#28166F" font-weight="normal" font-size="0.0593906" font-family="Arial">SIKKIM:0.0</text>
 </g>
</svg>
